<mxfile host="app.diagrams.net" modified="2023-10-22T00:27:46.474Z" agent="Mozilla/5.0 (Windows NT 10.0; Win64; x64) AppleWebKit/537.36 (KHTML, like Gecko) Chrome/118.0.0.0 Safari/537.36" etag="-3UvA2pTL__ykGbyo5MD" version="22.0.6" type="device">
  <diagram id="R2lEEEUBdFMjLlhIrx00" name="Page-1">
    <mxGraphModel dx="888" dy="434" grid="1" gridSize="10" guides="1" tooltips="1" connect="1" arrows="1" fold="1" page="1" pageScale="1" pageWidth="850" pageHeight="1100" math="0" shadow="0" extFonts="Permanent Marker^https://fonts.googleapis.com/css?family=Permanent+Marker">
      <root>
        <mxCell id="0" />
        <mxCell id="1" parent="0" />
        <mxCell id="1krIcXQXYlBSsBhl49E_-1" value="Cuenta" style="rounded=1;arcSize=10;whiteSpace=wrap;html=1;align=center;fillColor=#ffe6cc;strokeColor=#d79b00;" vertex="1" parent="1">
          <mxGeometry x="470" y="520" width="100" height="40" as="geometry" />
        </mxCell>
        <mxCell id="1krIcXQXYlBSsBhl49E_-6" style="rounded=0;orthogonalLoop=1;jettySize=auto;html=1;fillColor=#d5e8d4;strokeColor=#82b366;" edge="1" parent="1" source="1krIcXQXYlBSsBhl49E_-3" target="1krIcXQXYlBSsBhl49E_-4">
          <mxGeometry relative="1" as="geometry" />
        </mxCell>
        <mxCell id="1krIcXQXYlBSsBhl49E_-7" style="rounded=0;orthogonalLoop=1;jettySize=auto;html=1;fillColor=#d5e8d4;strokeColor=#82b366;" edge="1" parent="1" source="1krIcXQXYlBSsBhl49E_-3" target="1krIcXQXYlBSsBhl49E_-5">
          <mxGeometry relative="1" as="geometry" />
        </mxCell>
        <mxCell id="1krIcXQXYlBSsBhl49E_-3" value="TipoCuennta" style="rounded=1;arcSize=10;whiteSpace=wrap;html=1;align=center;fillColor=#ffe6cc;strokeColor=#d79b00;" vertex="1" parent="1">
          <mxGeometry x="300" y="520" width="100" height="40" as="geometry" />
        </mxCell>
        <mxCell id="1krIcXQXYlBSsBhl49E_-14" style="rounded=0;orthogonalLoop=1;jettySize=auto;html=1;entryX=1;entryY=0;entryDx=0;entryDy=0;fillColor=#d5e8d4;strokeColor=#82b366;" edge="1" parent="1" source="1krIcXQXYlBSsBhl49E_-4" target="1krIcXQXYlBSsBhl49E_-12">
          <mxGeometry relative="1" as="geometry" />
        </mxCell>
        <mxCell id="1krIcXQXYlBSsBhl49E_-15" style="rounded=0;orthogonalLoop=1;jettySize=auto;html=1;fillColor=#d5e8d4;strokeColor=#82b366;" edge="1" parent="1" source="1krIcXQXYlBSsBhl49E_-4" target="1krIcXQXYlBSsBhl49E_-13">
          <mxGeometry relative="1" as="geometry" />
        </mxCell>
        <mxCell id="1krIcXQXYlBSsBhl49E_-4" value="&lt;span style=&quot;border-bottom: 1px dotted&quot;&gt;Fidiuciaria&lt;/span&gt;" style="ellipse;whiteSpace=wrap;html=1;align=center;fillColor=#d5e8d4;strokeColor=#82b366;" vertex="1" parent="1">
          <mxGeometry x="220" y="460" width="100" height="40" as="geometry" />
        </mxCell>
        <mxCell id="1krIcXQXYlBSsBhl49E_-5" value="&lt;span style=&quot;border-bottom: 1px dotted&quot;&gt;Cripto&lt;/span&gt;" style="ellipse;whiteSpace=wrap;html=1;align=center;fillColor=#d5e8d4;strokeColor=#82b366;" vertex="1" parent="1">
          <mxGeometry x="370" y="460" width="100" height="40" as="geometry" />
        </mxCell>
        <mxCell id="1krIcXQXYlBSsBhl49E_-10" value="" style="fontSize=12;html=1;endArrow=ERoneToMany;rounded=0;exitX=0.5;exitY=0;exitDx=0;exitDy=0;entryX=0.5;entryY=1;entryDx=0;entryDy=0;" edge="1" parent="1" target="1krIcXQXYlBSsBhl49E_-1">
          <mxGeometry width="100" height="100" relative="1" as="geometry">
            <mxPoint x="520" y="630" as="sourcePoint" />
            <mxPoint x="590" y="600" as="targetPoint" />
          </mxGeometry>
        </mxCell>
        <mxCell id="1krIcXQXYlBSsBhl49E_-11" value="" style="edgeStyle=entityRelationEdgeStyle;fontSize=12;html=1;endArrow=ERmandOne;startArrow=ERmandOne;rounded=0;entryX=0;entryY=0.5;entryDx=0;entryDy=0;fillColor=#d5e8d4;strokeColor=#82b366;" edge="1" parent="1" source="1krIcXQXYlBSsBhl49E_-3" target="1krIcXQXYlBSsBhl49E_-1">
          <mxGeometry width="100" height="100" relative="1" as="geometry">
            <mxPoint x="490" y="700" as="sourcePoint" />
            <mxPoint x="590" y="600" as="targetPoint" />
          </mxGeometry>
        </mxCell>
        <mxCell id="1krIcXQXYlBSsBhl49E_-12" value="&lt;span style=&quot;border-bottom: 1px dotted&quot;&gt;Dolares&lt;/span&gt;" style="ellipse;whiteSpace=wrap;html=1;align=center;fillColor=#d5e8d4;strokeColor=#82b366;" vertex="1" parent="1">
          <mxGeometry x="140" y="510" width="100" height="40" as="geometry" />
        </mxCell>
        <mxCell id="1krIcXQXYlBSsBhl49E_-13" value="&lt;span style=&quot;border-bottom: 1px dotted&quot;&gt;Pesos&lt;/span&gt;" style="ellipse;whiteSpace=wrap;html=1;align=center;fillColor=#d5e8d4;strokeColor=#82b366;" vertex="1" parent="1">
          <mxGeometry x="140" y="420" width="100" height="40" as="geometry" />
        </mxCell>
        <mxCell id="1krIcXQXYlBSsBhl49E_-26" style="rounded=0;orthogonalLoop=1;jettySize=auto;html=1;entryX=1;entryY=0.5;entryDx=0;entryDy=0;" edge="1" parent="1" source="1krIcXQXYlBSsBhl49E_-16" target="1krIcXQXYlBSsBhl49E_-22">
          <mxGeometry relative="1" as="geometry" />
        </mxCell>
        <mxCell id="1krIcXQXYlBSsBhl49E_-27" style="rounded=0;orthogonalLoop=1;jettySize=auto;html=1;" edge="1" parent="1" source="1krIcXQXYlBSsBhl49E_-16" target="1krIcXQXYlBSsBhl49E_-23">
          <mxGeometry relative="1" as="geometry" />
        </mxCell>
        <mxCell id="1krIcXQXYlBSsBhl49E_-28" style="rounded=0;orthogonalLoop=1;jettySize=auto;html=1;" edge="1" parent="1" source="1krIcXQXYlBSsBhl49E_-16" target="1krIcXQXYlBSsBhl49E_-24">
          <mxGeometry relative="1" as="geometry" />
        </mxCell>
        <mxCell id="1krIcXQXYlBSsBhl49E_-16" value="Usuario" style="rounded=1;arcSize=10;whiteSpace=wrap;html=1;align=center;fillColor=#ffe6cc;strokeColor=#d79b00;" vertex="1" parent="1">
          <mxGeometry x="470" y="630" width="100" height="40" as="geometry" />
        </mxCell>
        <mxCell id="1krIcXQXYlBSsBhl49E_-17" value="Roles" style="rounded=1;arcSize=10;whiteSpace=wrap;html=1;align=center;fillColor=#ffe6cc;strokeColor=#d79b00;" vertex="1" parent="1">
          <mxGeometry x="640" y="630" width="100" height="40" as="geometry" />
        </mxCell>
        <mxCell id="1krIcXQXYlBSsBhl49E_-18" value="" style="fontSize=12;html=1;endArrow=ERoneToMany;rounded=0;exitX=1;exitY=0.5;exitDx=0;exitDy=0;entryX=0;entryY=0.5;entryDx=0;entryDy=0;" edge="1" parent="1" source="1krIcXQXYlBSsBhl49E_-16" target="1krIcXQXYlBSsBhl49E_-17">
          <mxGeometry width="100" height="100" relative="1" as="geometry">
            <mxPoint x="530" y="640" as="sourcePoint" />
            <mxPoint x="530" y="570" as="targetPoint" />
            <Array as="points">
              <mxPoint x="610" y="650" />
            </Array>
          </mxGeometry>
        </mxCell>
        <mxCell id="1krIcXQXYlBSsBhl49E_-19" value="Acciones" style="rounded=1;arcSize=10;whiteSpace=wrap;html=1;align=center;fillColor=#ffe6cc;strokeColor=#d79b00;" vertex="1" parent="1">
          <mxGeometry x="640" y="720" width="100" height="40" as="geometry" />
        </mxCell>
        <mxCell id="1krIcXQXYlBSsBhl49E_-21" value="" style="fontSize=12;html=1;endArrow=ERoneToMany;rounded=0;exitX=0.5;exitY=1;exitDx=0;exitDy=0;" edge="1" parent="1" source="1krIcXQXYlBSsBhl49E_-17" target="1krIcXQXYlBSsBhl49E_-19">
          <mxGeometry width="100" height="100" relative="1" as="geometry">
            <mxPoint x="580" y="660" as="sourcePoint" />
            <mxPoint x="650" y="660" as="targetPoint" />
          </mxGeometry>
        </mxCell>
        <mxCell id="1krIcXQXYlBSsBhl49E_-22" value="&lt;span style=&quot;border-bottom: 1px dotted&quot;&gt;Nombre&lt;/span&gt;" style="ellipse;whiteSpace=wrap;html=1;align=center;fillColor=#d5e8d4;strokeColor=#82b366;" vertex="1" parent="1">
          <mxGeometry x="340" y="620" width="100" height="40" as="geometry" />
        </mxCell>
        <mxCell id="1krIcXQXYlBSsBhl49E_-23" value="&lt;span style=&quot;border-bottom: 1px dotted&quot;&gt;Email&lt;/span&gt;" style="ellipse;whiteSpace=wrap;html=1;align=center;fillColor=#d5e8d4;strokeColor=#82b366;" vertex="1" parent="1">
          <mxGeometry x="360" y="690" width="100" height="40" as="geometry" />
        </mxCell>
        <mxCell id="1krIcXQXYlBSsBhl49E_-24" value="&lt;span style=&quot;border-bottom: 1px dotted&quot;&gt;PasswordHash&lt;/span&gt;" style="ellipse;whiteSpace=wrap;html=1;align=center;fillColor=#d5e8d4;strokeColor=#82b366;" vertex="1" parent="1">
          <mxGeometry x="470" y="720" width="100" height="40" as="geometry" />
        </mxCell>
        <mxCell id="1krIcXQXYlBSsBhl49E_-29" value="Movimiento" style="rounded=1;arcSize=10;whiteSpace=wrap;html=1;align=center;fillColor=#ffe6cc;strokeColor=#d79b00;" vertex="1" parent="1">
          <mxGeometry x="700" y="240" width="100" height="40" as="geometry" />
        </mxCell>
        <mxCell id="1krIcXQXYlBSsBhl49E_-37" style="rounded=0;orthogonalLoop=1;jettySize=auto;html=1;entryX=1;entryY=0.5;entryDx=0;entryDy=0;" edge="1" parent="1" source="1krIcXQXYlBSsBhl49E_-30" target="1krIcXQXYlBSsBhl49E_-35">
          <mxGeometry relative="1" as="geometry" />
        </mxCell>
        <mxCell id="1krIcXQXYlBSsBhl49E_-30" value="MovimientoCuenta" style="rounded=1;arcSize=10;whiteSpace=wrap;html=1;align=center;fillColor=#ffe6cc;strokeColor=#d79b00;" vertex="1" parent="1">
          <mxGeometry x="550" y="300" width="120" height="40" as="geometry" />
        </mxCell>
        <mxCell id="1krIcXQXYlBSsBhl49E_-33" value="" style="fontSize=12;html=1;endArrow=ERmandOne;startArrow=ERmandOne;rounded=0;fillColor=#d5e8d4;strokeColor=#82b366;exitX=0.5;exitY=0;exitDx=0;exitDy=0;" edge="1" parent="1" source="1krIcXQXYlBSsBhl49E_-30" target="1krIcXQXYlBSsBhl49E_-29">
          <mxGeometry width="100" height="100" relative="1" as="geometry">
            <mxPoint x="410" y="450" as="sourcePoint" />
            <mxPoint x="480" y="450" as="targetPoint" />
          </mxGeometry>
        </mxCell>
        <mxCell id="1krIcXQXYlBSsBhl49E_-34" value="&lt;span style=&quot;border-bottom: 1px dotted&quot;&gt;CuentaOrigen&lt;/span&gt;" style="ellipse;whiteSpace=wrap;html=1;align=center;fillColor=#d5e8d4;strokeColor=#82b366;" vertex="1" parent="1">
          <mxGeometry x="440" y="240" width="100" height="40" as="geometry" />
        </mxCell>
        <mxCell id="1krIcXQXYlBSsBhl49E_-35" value="&lt;span style=&quot;border-bottom: 1px dotted&quot;&gt;CuentaDestino&lt;/span&gt;" style="ellipse;whiteSpace=wrap;html=1;align=center;fillColor=#d5e8d4;strokeColor=#82b366;" vertex="1" parent="1">
          <mxGeometry x="440" y="350" width="100" height="40" as="geometry" />
        </mxCell>
        <mxCell id="1krIcXQXYlBSsBhl49E_-36" style="rounded=0;orthogonalLoop=1;jettySize=auto;html=1;entryX=0.93;entryY=0.775;entryDx=0;entryDy=0;entryPerimeter=0;" edge="1" parent="1" source="1krIcXQXYlBSsBhl49E_-30" target="1krIcXQXYlBSsBhl49E_-34">
          <mxGeometry relative="1" as="geometry" />
        </mxCell>
        <mxCell id="1krIcXQXYlBSsBhl49E_-38" value="" style="fontSize=12;html=1;endArrow=ERoneToMany;rounded=0;entryX=0.5;entryY=0;entryDx=0;entryDy=0;" edge="1" parent="1" source="1krIcXQXYlBSsBhl49E_-30" target="1krIcXQXYlBSsBhl49E_-1">
          <mxGeometry width="100" height="100" relative="1" as="geometry">
            <mxPoint x="600" y="450" as="sourcePoint" />
            <mxPoint x="670" y="450" as="targetPoint" />
          </mxGeometry>
        </mxCell>
        <mxCell id="1krIcXQXYlBSsBhl49E_-39" value="2" style="edgeLabel;html=1;align=center;verticalAlign=middle;resizable=0;points=[];" vertex="1" connectable="0" parent="1krIcXQXYlBSsBhl49E_-38">
          <mxGeometry x="0.7089" y="-2" relative="1" as="geometry">
            <mxPoint as="offset" />
          </mxGeometry>
        </mxCell>
        <mxCell id="1krIcXQXYlBSsBhl49E_-40" value="1" style="edgeLabel;html=1;align=center;verticalAlign=middle;resizable=0;points=[];" vertex="1" connectable="0" parent="1krIcXQXYlBSsBhl49E_-38">
          <mxGeometry x="-0.7769" y="2" relative="1" as="geometry">
            <mxPoint as="offset" />
          </mxGeometry>
        </mxCell>
      </root>
    </mxGraphModel>
  </diagram>
</mxfile>
